<svg width="512" height="512" viewBox="0 0 512 512" fill="none" xmlns="http://www.w3.org/2000/svg">
<path d="M401.208 444.878H111.67C87.5517 444.878 68 425.326 68 401.208V111.67C68 87.5517 87.5517 68 111.67 68H401.208C425.326 68 444.878 87.5517 444.878 111.67V401.208C444.878 425.326 425.326 444.878 401.208 444.878Z" fill="black"/>
<path d="M104.517 151.246C101.304 151.246 98.6986 148.641 98.6986 145.428V122.015C98.6986 109.158 109.158 98.6986 122.015 98.6986H145.428C148.642 98.6986 151.246 101.304 151.246 104.517C151.246 107.73 148.642 110.335 145.428 110.335H122.015C115.574 110.335 110.335 115.574 110.335 122.015V145.428C110.335 148.641 107.73 151.246 104.517 151.246Z" fill="#12B98F"/>
<path d="M145.428 414.18H122.015C109.158 414.18 98.6986 403.72 98.6986 390.864V367.45C98.6986 364.237 101.304 361.632 104.517 361.632C107.73 361.632 110.335 364.237 110.335 367.45V390.864C110.335 397.304 115.574 402.543 122.015 402.543H145.428C148.642 402.543 151.246 405.148 151.246 408.361C151.246 411.575 148.642 414.18 145.428 414.18Z" fill="#12B98F"/>
<path d="M390.864 414.18H367.45C364.237 414.18 361.632 411.575 361.632 408.361C361.632 405.148 364.237 402.543 367.45 402.543H390.864C397.304 402.543 402.543 397.304 402.543 390.864V367.45C402.543 364.237 405.148 361.632 408.361 361.632C411.575 361.632 414.18 364.237 414.18 367.45V390.864C414.18 403.72 403.72 414.18 390.864 414.18Z" fill="#12B98F"/>
<path d="M408.361 151.246C405.148 151.246 402.543 148.641 402.543 145.428V122.015C402.543 115.575 397.304 110.335 390.864 110.335H367.45C364.237 110.335 361.632 107.73 361.632 104.517C361.632 101.304 364.237 98.6986 367.45 98.6986H390.864C403.72 98.6986 414.18 109.158 414.18 122.015V145.428C414.18 148.641 411.575 151.246 408.361 151.246Z" fill="#12B98F"/>
<path d="M368.423 267.018C365.209 267.018 362.605 264.413 362.605 261.2V242.244C362.605 227.909 359.798 214.006 354.264 200.921C348.917 188.28 341.261 176.925 331.509 167.173C321.758 157.422 310.403 149.766 297.762 144.419C284.677 138.884 270.774 136.078 256.439 136.078C242.104 136.078 228.201 138.884 215.116 144.419C202.475 149.766 191.121 157.422 181.369 167.173C171.617 176.925 163.961 188.28 158.614 200.921C153.08 214.006 150.274 227.909 150.274 242.244C150.274 245.457 147.669 248.062 144.455 248.062C141.242 248.062 138.637 245.457 138.637 242.244C138.637 226.343 141.753 210.915 147.897 196.388C153.831 182.359 162.324 169.762 173.141 158.945C183.958 148.128 196.555 139.635 210.584 133.702C225.11 127.557 240.539 124.442 256.439 124.442C272.339 124.442 287.768 127.557 302.294 133.702C316.323 139.635 328.921 148.128 339.737 158.945C350.554 169.762 359.048 182.359 364.981 196.388C371.125 210.915 374.241 226.343 374.241 242.244V261.2C374.241 264.413 371.636 267.018 368.423 267.018Z" fill="white"/>
<path d="M365.628 307.786C364.551 307.197 339.251 292.763 339.251 242.244C339.251 220.124 330.637 199.328 314.996 183.687C299.355 168.046 278.559 159.432 256.439 159.432C234.319 159.432 213.523 168.046 197.883 183.687C182.241 199.328 173.627 220.124 173.627 242.244C173.627 253.472 168.69 262.683 159.349 268.88C152.706 273.288 146.218 274.564 145.5 274.695L143.41 263.248L143.384 263.253C143.434 263.243 148.423 262.256 153.202 258.991C159.116 254.95 161.991 249.472 161.991 242.244C161.991 229.496 164.489 217.126 169.416 205.478C174.173 194.231 180.982 184.131 189.654 175.459C198.326 166.787 208.426 159.978 219.674 155.22C231.321 150.294 243.691 147.796 256.439 147.796C269.187 147.796 281.557 150.294 293.204 155.22C304.452 159.978 314.552 166.787 323.224 175.459C331.896 184.131 338.705 194.231 343.463 205.478C348.389 217.126 350.887 229.496 350.887 242.244C350.887 254.752 352.673 272.575 361.179 286.449C366.175 294.597 371.226 297.584 371.277 297.613L371.217 297.58L365.628 307.786Z" fill="white"/>
<path d="M183.259 359.07C180.824 359.07 178.555 357.53 177.741 355.094C176.722 352.046 178.367 348.75 181.415 347.732C181.697 347.637 210.069 338.033 237.966 319.91C254.121 309.414 266.946 298.166 276.085 286.476C287.177 272.287 292.802 257.405 292.802 242.244C292.802 222.193 276.489 205.881 256.439 205.881C236.389 205.881 220.076 222.193 220.076 242.244C220.076 254.786 216.86 266.583 210.517 277.306C205.508 285.775 198.562 293.555 189.872 300.43C175.259 311.993 160.757 317.022 160.147 317.23C157.105 318.268 153.799 316.646 152.76 313.605C151.723 310.566 153.342 307.262 156.378 306.221C156.512 306.175 169.856 301.508 182.917 291.094C190.415 285.117 196.363 278.429 200.598 271.219C205.802 262.358 208.44 252.61 208.44 242.244C208.44 215.777 229.972 194.245 256.439 194.245C282.906 194.245 304.438 215.777 304.438 242.244C304.438 260.102 297.957 277.428 285.175 293.742C275.208 306.462 261.391 318.593 244.104 329.798C214.979 348.678 186.31 358.365 185.103 358.768C184.492 358.973 183.87 359.07 183.259 359.07Z" fill="white"/>
<path d="M169.505 339.308C167.163 339.308 164.955 337.884 164.069 335.565C162.922 332.564 164.425 329.201 167.426 328.053C167.686 327.954 193.816 317.884 219.516 301.877C242.354 287.653 269.577 265.761 269.577 242.244C269.577 234.999 263.683 229.105 256.439 229.105C249.195 229.105 243.301 234.999 243.301 242.244C243.301 245.457 240.696 248.062 237.483 248.062C234.269 248.062 231.665 245.457 231.665 242.244C231.665 228.583 242.778 217.469 256.439 217.469C270.1 217.469 281.214 228.583 281.214 242.244C281.214 255.315 275.138 268.634 263.157 281.83C254.012 291.902 241.35 302.001 225.522 311.845C198.881 328.414 172.683 338.501 171.581 338.923C170.898 339.184 170.195 339.308 169.505 339.308Z" fill="white"/>
<path d="M218.332 375.651C216.046 375.651 213.878 374.295 212.952 372.051C211.725 369.081 213.139 365.679 216.109 364.453C230.367 358.566 243.859 350.738 256.209 341.186C268.559 331.634 279.526 320.544 288.808 308.223C290.014 306.622 291.959 305.755 293.957 305.927C295.954 306.1 297.722 307.289 298.635 309.074C306.595 324.632 319.397 337.864 334.683 346.335C337.493 347.892 338.509 351.433 336.952 354.244C335.395 357.054 331.853 358.07 329.043 356.513C314.342 348.366 301.672 336.324 292.674 322.083C284.008 332.511 274.166 342.008 263.328 350.391C250.159 360.577 235.766 368.927 220.55 375.209C219.824 375.509 219.072 375.651 218.332 375.651Z" fill="white"/>
<path d="M355.693 334.658C355.144 334.658 354.585 334.579 354.031 334.415C352.966 334.098 343.356 330.932 334.002 317.573C328.702 310.005 324.501 300.586 321.517 289.578C317.873 276.137 316.026 260.212 316.026 242.244C316.026 226.327 309.828 211.364 298.573 200.11C287.319 188.855 272.355 182.657 256.439 182.657C240.522 182.657 225.559 188.855 214.304 200.11C203.05 211.364 196.852 226.328 196.852 242.244C196.852 257.934 189.377 272.239 175.234 283.612C164.888 291.932 154.586 295.777 154.152 295.937C151.137 297.047 147.793 295.503 146.682 292.487C145.573 289.474 147.114 286.132 150.125 285.02C150.339 284.939 159.374 281.505 168.188 274.345C179.486 265.167 185.215 254.367 185.215 242.244C185.215 223.219 192.624 205.334 206.076 191.881C219.529 178.429 237.414 171.02 256.439 171.02C275.463 171.02 293.349 178.429 306.801 191.881C320.254 205.334 327.662 223.219 327.662 242.244C327.662 280.255 336.293 300.559 343.533 310.899C350.518 320.874 357.285 323.242 357.35 323.262C360.43 324.178 362.184 327.418 361.267 330.498C360.515 333.024 358.201 334.658 355.693 334.658Z" fill="white"/>
<path d="M247.009 387.611C245.236 384.493 246.522 380.527 249.786 379.038C254.244 377.005 260.067 374.249 263.386 372.283C268.774 369.091 276.631 363.271 283.464 353.67C284.51 352.2 286.179 351.299 287.983 351.23C289.781 351.158 291.519 351.933 292.674 353.32C292.726 353.382 298.735 360.467 306.217 363.72C309.164 365.002 310.514 368.429 309.233 371.376C307.952 374.323 304.523 375.674 301.577 374.392C296.401 372.141 291.912 368.701 288.73 365.839C277.978 378.517 262.736 386.584 254.838 390.153C251.962 391.453 248.569 390.355 247.009 387.611Z" fill="white"/>
</svg>
