<svg width="512" height="512" viewBox="0 0 512 512" fill="none" xmlns="http://www.w3.org/2000/svg">
<path d="M449.244 75.1282C445.054 72.6252 439.858 72.5067 435.558 74.819C399.315 94.3092 366.027 99.3325 336.617 89.7511C291.047 74.9056 268.741 29.3607 268.536 28.9349C266.242 24.089 261.361 21 256 21C250.639 21 245.757 24.089 243.463 28.9349C243.247 29.3898 221.378 74.6323 175.624 89.672C146.153 99.3588 112.784 94.3625 76.4404 74.8182C72.1417 72.5059 66.9449 72.6245 62.7552 75.1276C58.5654 77.632 56 82.1539 56 87.0344V215.141C56 270.929 66.2597 320.181 86.4948 361.528C102.867 394.982 125.716 423.285 154.407 445.652C203.262 483.736 251.926 491.275 253.974 491.577C254.646 491.677 255.323 491.726 256 491.726C256.677 491.726 257.355 491.677 258.026 491.577C260.074 491.275 308.738 483.736 357.593 445.652C386.284 423.285 409.133 394.982 425.505 361.528C445.74 320.181 456 270.929 456 215.141V87.0344C455.999 82.1539 453.433 77.6326 449.244 75.1282ZM428.257 215.142C428.257 266.306 419.075 311.191 400.968 348.549C386.631 378.129 366.641 403.169 341.552 422.976C303.688 452.867 265.146 461.945 256.002 463.761C246.807 461.933 208.289 452.851 170.446 422.976C145.357 403.169 125.366 378.129 111.03 348.549C92.9226 311.191 83.7414 266.306 83.7414 215.142V109.015C119.445 123.884 153.183 126.251 184.286 116.027C219.497 104.453 242.962 79.3083 256 61.2593C269.038 79.3076 292.502 104.452 327.712 116.027C358.816 126.251 392.553 123.883 428.257 109.015V215.142H428.257Z" fill="#FCFCFC"/>
<path d="M263.204 91.141C260.745 88.6609 258.341 86.0871 256.002 83.4315C253.662 86.0871 251.259 88.6609 248.801 91.1417C219.653 120.552 183.807 136.098 145.137 136.098C129.732 136.098 113.815 133.62 97.6118 128.711V215.142C97.6118 264.194 106.326 307.043 123.511 342.5C136.927 370.179 155.61 393.592 179.04 412.089C211.536 437.742 244.849 447.03 255.998 449.575C267.147 447.03 300.46 437.742 332.956 412.089C356.386 393.592 375.069 370.178 388.485 342.5C405.67 307.042 414.384 264.193 414.384 215.142V128.711C398.183 133.619 382.264 136.098 366.858 136.098C328.195 136.096 292.351 120.55 263.204 91.141Z" fill="#FCFCFC"/>
<g clip-path="url(#clip0_2005_30)">
<rect width="200" height="200" transform="translate(156 145)" fill="#FCFCFC"/>
<path d="M255.788 439.286C241.167 439.286 227.825 436.806 215.763 431.848C203.701 426.889 193.192 419.91 184.237 410.911C175.281 401.912 168.336 391.352 163.402 379.231C158.467 367.109 156 353.794 156 339.286C156 324.777 158.467 311.462 163.402 299.341C168.336 287.22 175.281 276.66 184.237 267.66C193.192 258.661 203.701 251.682 215.763 246.724C227.825 241.765 241.075 239.286 255.514 239.286C269.952 239.286 283.202 241.765 295.264 246.724C307.326 251.682 317.835 258.661 326.79 267.66C335.746 276.66 342.599 287.22 347.351 299.341C352.286 311.462 354.753 324.777 354.753 339.286C354.753 353.611 352.286 366.926 347.351 379.231C342.599 391.352 335.746 401.912 326.79 410.911C317.835 419.91 307.326 426.889 295.264 431.848C283.202 436.806 270.043 439.286 255.788 439.286ZM255.514 395.209C263.007 395.209 269.86 393.831 276.074 391.076C282.471 388.322 287.954 384.465 292.523 379.506C297.274 374.364 300.93 368.395 303.488 361.6C306.047 354.805 307.326 347.367 307.326 339.286C307.326 331.205 306.047 323.767 303.488 316.972C300.93 310.176 297.274 304.3 292.523 299.341C287.954 294.199 282.471 290.25 276.074 287.495C269.86 284.74 263.007 283.363 255.514 283.363C248.02 283.363 241.075 284.74 234.679 287.495C228.465 290.25 222.982 294.199 218.23 299.341C213.478 304.3 209.823 310.176 207.265 316.972C204.889 323.767 203.701 331.205 203.701 339.286C203.701 347.367 204.889 354.896 207.265 361.875C209.823 368.671 213.478 374.547 218.23 379.506C222.982 384.465 228.465 388.322 234.679 391.076C241.075 393.831 248.02 395.209 255.514 395.209Z" fill="black"/>
<path d="M257.065 145L287 197H229L257.065 145Z" fill="url(#paint0_linear_2005_30)"/>
</g>
<defs>
<linearGradient id="paint0_linear_2005_30" x1="244.95" y1="152.222" x2="288.229" y2="213.046" gradientUnits="userSpaceOnUse">
<stop stop-color="#10B981"/>
<stop offset="1" stop-color="#14B8A6"/>
</linearGradient>
<clipPath id="clip0_2005_30">
<rect width="200" height="200" fill="white" transform="translate(156 145)"/>
</clipPath>
</defs>
</svg>
